<?xml version="1.0" encoding="iso-8859-1"?>
<!-- Uploaded to: SVG Repo, www.svgrepo.com, Generator: SVG Repo Mixer Tools -->
<svg fill="#000000" height="800px" width="800px" version="1.1" id="Capa_1" xmlns="http://www.w3.org/2000/svg" xmlns:xlink="http://www.w3.org/1999/xlink" 
	 viewBox="0 0 490 490" xml:space="preserve">
<g>
	<g>
		<g>
			<path d="M449.25,0H40.85c-11.2,0-20.4,9.2-20.4,20.4v449.2c0,11.2,9.2,20.4,20.4,20.4h408.3c11.2,0,20.4-9.2,20.4-20.4V20.4
				C469.65,9.2,460.45,0,449.25,0z M428.85,449.2H61.35V40.8h367.5V449.2z"/>
			<path d="M130.75,132.7h228.7c11.2,0,19.4-9.2,19.4-20.4s-9.2-20.4-20.4-20.4h-227.7c-11.2,0-20.4,9.2-20.4,20.4
				C110.35,123.5,119.45,132.7,130.75,132.7z"/>
			<path d="M130.75,245h228.7c11.2,0,19.4-9.2,19.4-20.4s-9.2-20.4-20.4-20.4h-227.7c-11.2,0-20.4,9.2-20.4,20.4
				C110.35,235.8,119.45,245,130.75,245z"/>
			<path d="M360.45,306.3l-30.1,30.8l-30.1-30.8c-7.1-8.2-20.4-8.2-28.6,0c-8.2,7.1-8.2,20.4,0,28.6l30.4,31.1l-30.4,31.1
				c-8.2,8.2-8.2,20.4,0,28.6c4.1,4.1,15.3,11.7,28.6,0l30.1-30.8l30.1,30.8c12.4,11.7,24.5,4.1,28.6,0c8.2-7.1,8.2-20.4,0-28.6
				l-30.5-31.1l30.4-31.1c8.2-8.2,8.2-20.4,0-28.6C380.85,298.1,368.55,298.1,360.45,306.3z"/>
		</g>
	</g>
</g>
</svg>